<?xml version="1.0" encoding="UTF-8"?>
<svg version="1.1" xmlns="http://www.w3.org/2000/svg" width="259" height="259">
<path d="M0 0 C85.47 0 170.94 0 259 0 C259 85.47 259 170.94 259 259 C173.53 259 88.06 259 0 259 C0 173.53 0 88.06 0 0 Z " fill="#330042" transform="translate(0,0)"/>
<path d="M0 0 C1.2065625 0.0309375 1.2065625 0.0309375 2.4375 0.0625 C5.99207123 6.87320218 9.03744953 13.75207219 11.75 20.9375 C12.10900391 21.86046875 12.46800781 22.7834375 12.83789062 23.734375 C13.17626953 24.62382812 13.51464844 25.51328125 13.86328125 26.4296875 C14.16661377 27.22487793 14.46994629 28.02006836 14.7824707 28.83935547 C15.4375 31.0625 15.4375 31.0625 15.4375 35.0625 C13.7875 34.7325 12.1375 34.4025 10.4375 34.0625 C9.7775 31.4225 9.1175 28.7825 8.4375 26.0625 C3.1575 26.3925 -2.1225 26.7225 -7.5625 27.0625 C-8.5525 29.7025 -9.5425 32.3425 -10.5625 35.0625 C-12.2125 35.0625 -13.8625 35.0625 -15.5625 35.0625 C-14.95606533 30.5317992 -13.77395747 26.63273801 -12.09375 22.38671875 C-11.85338013 21.77609085 -11.61301025 21.16546295 -11.36535645 20.53633118 C-10.86044857 19.25708713 -10.3527172 17.97895419 -9.84228516 16.7019043 C-9.05877881 14.74068538 -8.28457949 12.77598214 -7.51171875 10.81054688 C-3.26508799 0.07963629 -3.26508799 0.07963629 0 0 Z " fill="#E9E7EB" transform="translate(85.5625,110.9375)"/>
<path d="M0 0 C4.78171032 1.69138183 7.9780587 4.35637404 10.5 8.75 C12.68503697 13.93946281 12.93066796 18.76592884 11.375 24.171875 C9.42211857 28.8099684 6.74919737 31.72100482 2.34765625 34.15625 C-3.27987964 36.17879202 -8.86334629 35.73811673 -14.4375 33.8125 C-18.77391906 30.74527676 -21.59787313 27.14113186 -23 22 C-23.6042137 16.28647046 -23.34587638 11.85691733 -20 7 C-13.60766655 0.69644896 -9.07324262 -1.05303491 0 0 Z M-14.125 7.4375 C-14.74375 8.283125 -15.3625 9.12875 -16 10 C-16.33 10.33 -16.66 10.66 -17 11 C-17.15252309 12.91240484 -17.22192773 14.83172799 -17.25 16.75 C-17.27578125 17.79671875 -17.3015625 18.8434375 -17.328125 19.921875 C-16.955555 23.41693639 -16.11156779 25.21390361 -14 28 C-10.21411665 30.18416347 -7.75539494 31.01302405 -3.375 30.9375 C0.33559609 29.90677886 2.28942789 28.71057211 5 26 C6.6567674 21.0296978 7.19255783 14.92204929 5.17578125 9.98046875 C3.70748199 7.73708215 2.4142306 6.2071153 0 5 C-5.51498995 4.37834252 -9.63583608 3.93595214 -14.125 7.4375 Z " fill="#E5E3E8" transform="translate(224,111)"/>
<path d="M0 0 C1.65 0 3.3 0 5 0 C9.53847498 8.35400704 12.7799822 17.08132526 16 26 C20.01139134 17.46248127 23.55362648 8.77581709 27 0 C28.65 0 30.3 0 32 0 C31.31815331 4.25712573 29.89819977 8.07991713 28.27734375 12.05078125 C28.01240616 12.70958786 27.74746857 13.36839447 27.47450256 14.04716492 C26.63289135 16.13727337 25.78529668 18.22489393 24.9375 20.3125 C24.36353459 21.73486562 23.78996263 23.15739008 23.21679688 24.58007812 C21.8157456 28.05524054 20.40932541 31.52818532 19 35 C17.02 35 15.04 35 13 35 C12.62488281 33.91203125 12.24976563 32.8240625 11.86328125 31.703125 C9.15376719 23.90303575 6.36868532 16.19253853 3.078125 8.61328125 C1.90971997 5.78116906 0.93905139 2.91532772 0 0 Z " fill="#EAE9EC" transform="translate(150,111)"/>
<path d="M0 0 C3.1875 1.25 3.1875 1.25 5 3 C5 4.32 5 5.64 5 7 C2.83125748 6.49396008 1.00032373 6.00016187 -1 5 C-6.19710819 4.7884363 -9.93265863 5.18882056 -14.125 8.375 C-17.10853206 12.77066645 -16.82658978 17.93525899 -16 23 C-14.95078441 25.6179457 -13.95686001 26.87540913 -12 29 C-7.87689931 30.3743669 -3.81690468 30.88249656 0.1875 28.9375 C1.0846875 28.4734375 1.0846875 28.4734375 2 28 C4.25 28.375 4.25 28.375 6 29 C4.99734298 31.73451915 4.41380593 32.79525978 1.7578125 34.109375 C-4.0374715 35.9809398 -9.89313542 35.95766572 -15.4375 33.4375 C-20.79523868 28.34111443 -22.25027196 24.74620733 -22.5 17.4375 C-22.32446324 12.15929125 -21.74620753 8.94870524 -18 5 C-12.04774894 -0.24364975 -7.79927482 -0.6293363 0 0 Z " fill="#EBE8EC" transform="translate(60,111)"/>
<path d="M0 0 C1.65 0 3.3 0 5 0 C5 10.56 5 21.12 5 32 C9.95 32 14.9 32 20 32 C20 32.99 20 33.98 20 35 C13.4 35 6.8 35 0 35 C0 23.45 0 11.9 0 0 Z " fill="#F0F1F2" transform="translate(107,111)"/>
<path d="M0 0 C1.98 0 3.96 0 6 0 C6 11.55 6 23.1 6 35 C4.02 35 2.04 35 0 35 C0 23.45 0 11.9 0 0 Z " fill="#DFD7D9" transform="translate(188,111)"/>
<path d="M0 0 C1.32 0 2.64 0 4 0 C4 10.23 4 20.46 4 31 C8.95 31 13.9 31 19 31 C19 31.99 19 32.98 19 34 C12.73 34 6.46 34 0 34 C0 22.78 0 11.56 0 0 Z " fill="#F9FAFB" transform="translate(133,112)"/>
<path d="M0 0 C2.37682369 2.13714399 3.59931002 3.93778054 4.6875 6.9375 C5.06455078 7.94103516 5.06455078 7.94103516 5.44921875 8.96484375 C6 11 6 11 6 15 C2.37 15 -1.26 15 -5 15 C-4.23239022 11.16195111 -3.40495674 8.23779856 -1.9375 4.6875 C-1.39416016 3.36298828 -1.39416016 3.36298828 -0.83984375 2.01171875 C-0.56269531 1.34785156 -0.28554687 0.68398437 0 0 Z " fill="#451352" transform="translate(85,118)"/>
</svg>
